<svg width="47" height="47" viewBox="0 0 47 47" fill="none" xmlns="http://www.w3.org/2000/svg">
<path d="M19.0604 33.9552V13.3302L32.8104 23.6427M23.6437 0.726074C20.6343 0.726074 17.6543 1.31883 14.8739 2.4705C12.0935 3.62217 9.5672 5.3102 7.43919 7.43821C3.14148 11.7359 0.727051 17.5649 0.727051 23.6427C0.727051 29.7206 3.14148 35.5496 7.43919 39.8473C9.5672 41.9753 12.0935 43.6633 14.8739 44.815C17.6543 45.9667 20.6343 46.5594 23.6437 46.5594C29.7216 46.5594 35.5505 44.145 39.8482 39.8473C44.146 35.5496 46.5604 29.7206 46.5604 23.6427C46.5604 20.6333 45.9676 17.6533 44.816 14.8729C43.6643 12.0925 41.9763 9.56622 39.8482 7.43821C37.7202 5.3102 35.1939 3.62217 32.4135 2.4705C29.6332 1.31883 26.6532 0.726074 23.6437 0.726074Z" fill="white"/>
</svg>
